<?xml version="1.0" encoding="utf-8"?>
<!-- Generator: Adobe Illustrator 18.1.0, SVG Export Plug-In . SVG Version: 6.00 Build 0)  -->
<svg version="1.1" id="Layer_1" xmlns="http://www.w3.org/2000/svg" xmlns:xlink="http://www.w3.org/1999/xlink" x="0px" y="0px"
	 viewBox="0 0 612 792" enable-background="new 0 0 612 792" xml:space="preserve">
<g>
	<path d="M306,402.3c-2.7-5-6.7-5.4-11-5.4c-20.9,0.1-41.7,0-62.6,0c-3.8,0-7.5-0.2-10.6-3c-0.7-0.6-1.9-1.3-1.1-2.4
		c1.1-1.4,1.8-0.1,2.6,0.6c2.6,2.2,5.7,2.2,8.9,2.2c20.7,0,41.5,0,62.2,0c3.6,0,7.3,0.1,10.3,2.5c0.7,0.6,1.4,0.8,2.3,0.1
		c3.1-2.6,6.9-2.6,10.7-2.6c20.5,0,41,0,61.5,0c3.6,0,7.3,0.3,10-3c0.6-0.7,1.3-0.7,1.9-0.1c0.7,0.7,0.3,1.4-0.3,1.9
		c-1.5,1.7-3.3,2.7-5.5,3c-2.2,0.4-4.5,0.6-6.7,0.6c-20.6,0-41.2,0.1-61.9,0C312.5,396.8,308.6,397.4,306,402.3z"/>
</g>
</svg>
